<svg id="Group_7" data-name="Group 7" xmlns="http://www.w3.org/2000/svg" xmlns:xlink="http://www.w3.org/1999/xlink" width="19.445" height="16.667" viewBox="0 0 19.445 16.667">
  <defs>
    <clipPath id="clip-path">
      <path id="Combined_Shape" data-name="Combined Shape" d="M0,8.333C0,3.739,4.362,0,9.722,0s9.723,3.739,9.723,8.333-4.362,8.334-9.723,8.334S0,12.929,0,8.333Zm1.945,0C1.945,12.01,5.434,15,9.722,15S17.5,12.01,17.5,8.333,14.011,1.667,9.722,1.667,1.945,4.658,1.945,8.333ZM6.805,10V4.167H8.75V8.333h4.861V10Z" fill="#2d2d2d"/>
    </clipPath>
  </defs>
  <path id="Combined_Shape-2" data-name="Combined Shape" d="M0,8.333C0,3.739,4.362,0,9.722,0s9.723,3.739,9.723,8.333-4.362,8.334-9.723,8.334S0,12.929,0,8.333Zm1.945,0C1.945,12.01,5.434,15,9.722,15S17.5,12.01,17.5,8.333,14.011,1.667,9.722,1.667,1.945,4.658,1.945,8.333ZM6.805,10V4.167H8.75V8.333h4.861V10Z" fill="#373737"/>
</svg>
